# Blender v3.0.1 OBJ File: ''
# www.blender.org
mtllib leaves.mtl
o defaultMaterial.003_defaultMaterial.005
v 0.321190 1.212717 0.129433
v 0.177306 1.264040 0.228585
v 0.298642 1.109703 0.354385
v 0.330553 1.098320 0.332395
v 0.267696 1.296938 -0.095675
v 0.034443 1.380137 0.065062
v 0.139715 1.305054 -0.316851
v -0.120426 1.397844 -0.137584
v -0.028460 1.234892 -0.474829
v -0.245802 1.312416 -0.325056
v -0.255541 1.151986 -0.544513
v -0.286267 1.162946 -0.523339
v -0.263381 1.040263 -1.417034
v -0.090282 0.990436 -1.390168
v -0.186350 0.836661 -1.536770
v -0.224740 0.847711 -1.542729
v -0.302524 1.206599 -1.239754
v -0.021909 1.125824 -1.196200
v -0.334484 1.287408 -0.999313
v -0.021523 1.197323 -0.950739
v -0.350699 1.261039 -0.760137
v -0.089226 1.185774 -0.719555
v -0.289386 1.162786 -0.536794
v -0.252422 1.152146 -0.531057
v -1.139017 1.303870 -0.670378
v -1.096279 1.280466 -0.845858
v -1.292069 1.160940 -0.804057
v -1.301548 1.166130 -0.765139
v -0.934341 1.401962 -0.574911
v -0.865056 1.364022 -0.859386
v -0.690533 1.402683 -0.497967
v -0.613261 1.360369 -0.815234
v -0.472920 1.305839 -0.460162
v -0.408361 1.270487 -0.725232
v -0.275467 1.159965 -0.515189
v -0.266340 1.154967 -0.552663
v -0.458360 1.482306 0.274166
v -0.621728 1.517299 0.201680
v -0.656275 1.424275 0.412680
v -0.620043 1.416515 0.428756
v -0.305470 1.504592 0.082447
v -0.570309 1.561320 -0.035062
v -0.201497 1.437813 -0.141370
v -0.496865 1.501080 -0.272424
v -0.174301 1.299864 -0.337312
v -0.421075 1.352722 -0.446805
v -0.253461 1.153730 -0.526186
v -0.288347 1.161202 -0.541665
v 0.570338 0.870339 -0.593447
v 0.592866 0.961788 -0.437571
v 0.698452 0.755187 -0.414419
v 0.693456 0.734906 -0.448989
v 0.396643 0.999864 -0.710415
v 0.433164 1.148114 -0.457722
v 0.160999 1.090937 -0.749671
v 0.201730 1.256276 -0.467848
v -0.073454 1.119155 -0.700695
v -0.039424 1.257292 -0.465238
v -0.273309 1.147702 -0.550569
v -0.268499 1.167230 -0.517283
v 0.078655 1.025585 -1.124140
v 0.180460 0.989812 -1.034896
v 0.156540 0.852800 -1.148024
v 0.133961 0.860734 -1.167817
v 0.001806 1.178603 -1.043374
v 0.166845 1.120610 -0.898698
v -0.100831 1.276776 -0.907468
v 0.083233 1.212098 -0.746115
v -0.201755 1.293799 -0.752837
v -0.047973 1.239762 -0.618030
v -0.251158 1.253187 -0.570272
v -0.229418 1.245548 -0.551215
v -0.633872 1.566844 -1.022826
v -0.564157 1.487976 -1.115175
v -0.737942 1.482254 -1.158859
v -0.753403 1.499745 -1.138378
v -0.506678 1.595835 -0.885623
v -0.393661 1.467980 -1.035332
v -0.391118 1.544839 -0.734996
v -0.265074 1.402246 -0.901963
v -0.318158 1.427521 -0.611306
v -0.212851 1.308388 -0.750803
v -0.247731 1.257789 -0.550883
v -0.232844 1.240947 -0.570604
v -0.664796 1.615586 -0.167175
v -0.749134 1.611089 -0.278869
v -0.848828 1.576654 -0.133895
v -0.830124 1.577651 -0.109123
v -0.491514 1.613703 -0.243419
v -0.628235 1.606412 -0.424489
v -0.338903 1.534948 -0.339077
v -0.491385 1.526818 -0.541020
v -0.247855 1.400425 -0.428519
v -0.375251 1.393632 -0.597238
v -0.231283 1.249848 -0.548818
v -0.249293 1.248888 -0.572669
v -0.085388 1.557426 0.031139
v -0.215640 1.608072 0.022302
v -0.189975 1.552846 0.190925
v -0.161088 1.541614 0.192885
v -0.032893 1.540590 -0.149981
v -0.244048 1.622694 -0.164306
v -0.036365 1.463911 -0.330953
v -0.271860 1.555479 -0.346930
v -0.094872 1.347935 -0.463287
v -0.291623 1.424438 -0.476635
v -0.226380 1.243960 -0.559800
v -0.254195 1.254775 -0.561687
v 0.412303 1.296402 -0.357934
v 0.358967 1.370672 -0.251878
v 0.478896 1.256327 -0.183433
v 0.490725 1.239856 -0.206954
v 0.294322 1.334136 -0.501112
v 0.207857 1.454537 -0.329182
v 0.124162 1.327505 -0.599318
v 0.027730 1.461785 -0.407569
v -0.052583 1.278285 -0.626238
v -0.133150 1.390473 -0.466036
v -0.234593 1.241438 -0.572068
v -0.245983 1.257298 -0.549420
vt 0.209544 0.977026
vt 0.255016 0.792963
vt 0.107258 0.802819
vt 0.176774 0.979212
vt 0.048400 0.611452
vt 0.287934 0.595473
vt 0.020788 0.405407
vt 0.287934 0.387587
vt 0.029794 0.209512
vt 0.252989 0.194624
vt 0.145146 0.020788
vt 0.113593 0.022893
vt 0.209544 0.977026
vt 0.255016 0.792963
vt 0.107258 0.802819
vt 0.176774 0.979212
vt 0.048400 0.611452
vt 0.287934 0.595473
vt 0.020788 0.405407
vt 0.287934 0.387587
vt 0.029794 0.209512
vt 0.252989 0.194624
vt 0.145146 0.020788
vt 0.113593 0.022893
vt 0.209544 0.977026
vt 0.255016 0.792963
vt 0.107258 0.802819
vt 0.176774 0.979212
vt 0.048400 0.611452
vt 0.287934 0.595473
vt 0.020788 0.405407
vt 0.287934 0.387587
vt 0.029794 0.209512
vt 0.252989 0.194624
vt 0.145146 0.020788
vt 0.113593 0.022893
vt 0.209544 0.977026
vt 0.255016 0.792963
vt 0.107258 0.802819
vt 0.176774 0.979212
vt 0.048400 0.611452
vt 0.287934 0.595473
vt 0.020788 0.405407
vt 0.287934 0.387587
vt 0.029794 0.209512
vt 0.252989 0.194624
vt 0.145146 0.020788
vt 0.113593 0.022893
vt 0.209544 0.977026
vt 0.255016 0.792963
vt 0.107258 0.802819
vt 0.176774 0.979212
vt 0.048400 0.611452
vt 0.287934 0.595473
vt 0.020788 0.405407
vt 0.287934 0.387587
vt 0.029794 0.209512
vt 0.252989 0.194624
vt 0.145146 0.020788
vt 0.113593 0.022893
vt 0.209544 0.977026
vt 0.255016 0.792963
vt 0.107258 0.802819
vt 0.176774 0.979212
vt 0.048400 0.611452
vt 0.287934 0.595473
vt 0.020788 0.405407
vt 0.287934 0.387587
vt 0.029794 0.209512
vt 0.252989 0.194624
vt 0.145146 0.020788
vt 0.113593 0.022893
vt 0.209544 0.977026
vt 0.255016 0.792963
vt 0.107258 0.802819
vt 0.176774 0.979212
vt 0.048400 0.611452
vt 0.287934 0.595473
vt 0.020788 0.405407
vt 0.287934 0.387587
vt 0.029794 0.209512
vt 0.252989 0.194624
vt 0.145146 0.020788
vt 0.113593 0.022893
vt 0.209544 0.977026
vt 0.255016 0.792963
vt 0.107258 0.802819
vt 0.176774 0.979212
vt 0.048400 0.611452
vt 0.287934 0.595473
vt 0.020788 0.405407
vt 0.287934 0.387587
vt 0.029794 0.209512
vt 0.252989 0.194624
vt 0.145146 0.020788
vt 0.113593 0.022893
vt 0.209544 0.977026
vt 0.255016 0.792963
vt 0.107258 0.802819
vt 0.176774 0.979212
vt 0.048400 0.611452
vt 0.287934 0.595473
vt 0.020788 0.405407
vt 0.287934 0.387587
vt 0.029794 0.209512
vt 0.252989 0.194624
vt 0.145146 0.020788
vt 0.113593 0.022893
vt 0.209544 0.977026
vt 0.255016 0.792963
vt 0.107258 0.802819
vt 0.176774 0.979212
vt 0.048400 0.611452
vt 0.287934 0.595473
vt 0.020788 0.405407
vt 0.287934 0.387587
vt 0.029794 0.209512
vt 0.252989 0.194624
vt 0.145146 0.020788
vt 0.113593 0.022893
vn 0.5378 0.7448 0.3950
vn 0.4929 0.8200 0.2909
vn 0.4929 0.8200 0.2908
vn 0.5379 0.7448 0.3950
vn 0.3561 0.9339 0.0333
vn 0.1488 0.9497 -0.2757
vn -0.0290 0.8699 -0.4924
vn -0.1148 0.8044 -0.5829
vn 0.2827 0.5635 -0.7763
vn 0.2976 0.6641 -0.6859
vn 0.3108 0.8467 -0.4319
vn 0.2867 0.9550 -0.0764
vn 0.2400 0.9475 0.2112
vn 0.2098 0.9149 0.3449
vn -0.5426 0.8051 -0.2395
vn -0.4281 0.8763 -0.2211
vn -0.1373 0.9769 -0.1637
vn 0.2244 0.9716 -0.0749
vn 0.4876 0.8731 0.0023
vn 0.6009 0.7983 0.0399
vn 0.0158 0.9139 0.4055
vn 0.0757 0.9540 0.2900
vn 0.2066 0.9784 0.0067
vn 0.3352 0.8827 -0.3294
vn 0.4040 0.7215 -0.5623
vn 0.4252 0.6209 -0.6586
vn 0.8484 0.3939 -0.3537
vn 0.7706 0.4948 -0.4017
vn 0.5395 0.6899 -0.4827
vn 0.1974 0.8328 -0.5171
vn -0.0915 0.8646 -0.4940
vn -0.2294 0.8536 -0.4676
vn -0.2294 0.8536 -0.4677
vn 0.6804 0.3923 -0.6190
vn 0.6617 0.5086 -0.5509
vn 0.5725 0.7379 -0.3573
vn 0.3941 0.9153 -0.0827
vn 0.2153 0.9662 0.1417
vn 0.1215 0.9614 0.2468
vn 0.1220 0.7983 -0.5897
vn 0.2374 0.8199 -0.5210
vn 0.4837 0.8115 -0.3279
vn 0.7135 0.6982 -0.0576
vn 0.8254 0.5411 0.1609
vn 0.8546 0.4480 0.2625
vn -0.1881 0.9768 0.1027
vn -0.0810 0.9965 0.0210
vn 0.1685 0.9715 -0.1664
vn 0.1686 0.9715 -0.1664
vn 0.4424 0.8183 -0.3670
vn 0.6152 0.6181 -0.4894
vn 0.6806 0.5016 -0.5341
vn 0.3367 0.9088 0.2464
vn 0.3534 0.9286 0.1128
vn 0.3366 0.9088 0.2464
vn 0.3668 0.9087 -0.1993
vn 0.3360 0.7693 -0.5433
vn 0.2791 0.5848 -0.7617
vn 0.2428 0.4770 -0.8447
vn 0.7196 0.6844 -0.1174
vn 0.6341 0.7460 -0.2035
vn 0.3949 0.8340 -0.3854
vn 0.0616 0.8319 -0.5516
vn -0.2071 0.7494 -0.6289
vn -0.3316 0.6863 -0.6474
usemtl PalmLeaf.001
s 1
f 4/1/1 1/2/2 2/3/3
f 2/3/3 3/4/4 4/1/1
f 6/5/5 2/3/3 1/2/2
f 1/2/2 5/6/5 6/5/5
f 8/7/6 6/5/5 5/6/5
f 5/6/5 7/8/6 8/7/6
f 10/9/7 8/7/6 7/8/6
f 7/8/6 9/10/7 10/9/7
f 9/10/7 11/11/8 12/12/8
f 12/12/8 10/9/7 9/10/7
f 16/13/9 13/14/10 14/15/10
f 14/15/10 15/16/9 16/13/9
f 18/17/11 14/15/10 13/14/10
f 13/14/10 17/18/11 18/17/11
f 20/19/12 18/17/11 17/18/11
f 17/18/11 19/20/12 20/19/12
f 22/21/13 20/19/12 19/20/12
f 19/20/12 21/22/13 22/21/13
f 21/22/13 23/23/14 24/24/14
f 24/24/14 22/21/13 21/22/13
f 28/25/15 25/26/16 26/27/16
f 26/27/16 27/28/15 28/25/15
f 30/29/17 26/27/16 25/26/16
f 25/26/16 29/30/17 30/29/17
f 32/31/18 30/29/17 29/30/17
f 29/30/17 31/32/18 32/31/18
f 34/33/19 32/31/18 31/32/18
f 31/32/18 33/34/19 34/33/19
f 33/34/19 35/35/20 36/36/20
f 36/36/20 34/33/19 33/34/19
f 40/37/21 37/38/22 38/39/22
f 38/39/22 39/40/21 40/37/21
f 42/41/23 38/39/22 37/38/22
f 37/38/22 41/42/23 42/41/23
f 44/43/24 42/41/23 41/42/23
f 41/42/23 43/44/24 44/43/24
f 46/45/25 44/43/24 43/44/24
f 43/44/24 45/46/25 46/45/25
f 45/46/25 47/47/26 48/48/26
f 48/48/26 46/45/25 45/46/25
f 52/49/27 49/50/28 50/51/28
f 50/51/28 51/52/27 52/49/27
f 54/53/29 50/51/28 49/50/28
f 49/50/28 53/54/29 54/53/29
f 56/55/30 54/53/29 53/54/29
f 53/54/29 55/56/30 56/55/30
f 58/57/31 56/55/30 55/56/30
f 55/56/30 57/58/31 58/57/31
f 57/58/31 59/59/32 60/60/33
f 60/60/33 58/57/31 57/58/31
f 64/61/34 61/62/35 62/63/35
f 62/63/35 63/64/34 64/61/34
f 66/65/36 62/63/35 61/62/35
f 61/62/35 65/66/36 66/65/36
f 68/67/37 66/65/36 65/66/36
f 65/66/36 67/68/37 68/67/37
f 70/69/38 68/67/37 67/68/37
f 67/68/37 69/70/38 70/69/38
f 69/70/38 71/71/39 72/72/39
f 72/72/39 70/69/38 69/70/38
f 76/73/40 73/74/41 74/75/41
f 74/75/41 75/76/40 76/73/40
f 78/77/42 74/75/41 73/74/41
f 73/74/41 77/78/42 78/77/42
f 80/79/43 78/77/42 77/78/42
f 77/78/42 79/80/43 80/79/43
f 82/81/44 80/79/43 79/80/43
f 79/80/43 81/82/44 82/81/44
f 81/82/44 83/83/45 84/84/45
f 84/84/45 82/81/44 81/82/44
f 88/85/46 85/86/47 86/87/47
f 86/87/47 87/88/46 88/85/46
f 90/89/48 86/87/47 85/86/47
f 85/86/47 89/90/49 90/89/48
f 92/91/50 90/89/48 89/90/49
f 89/90/49 91/92/50 92/91/50
f 94/93/51 92/91/50 91/92/50
f 91/92/50 93/94/51 94/93/51
f 93/94/51 95/95/52 96/96/52
f 96/96/52 94/93/51 93/94/51
f 100/97/53 97/98/54 98/99/54
f 98/99/54 99/100/55 100/97/53
f 102/101/56 98/99/54 97/98/54
f 97/98/54 101/102/56 102/101/56
f 104/103/57 102/101/56 101/102/56
f 101/102/56 103/104/57 104/103/57
f 106/105/58 104/103/57 103/104/57
f 103/104/57 105/106/58 106/105/58
f 105/106/58 107/107/59 108/108/59
f 108/108/59 106/105/58 105/106/58
f 112/109/60 109/110/61 110/111/61
f 110/111/61 111/112/60 112/109/60
f 114/113/62 110/111/61 109/110/61
f 109/110/61 113/114/62 114/113/62
f 116/115/63 114/113/62 113/114/62
f 113/114/62 115/116/63 116/115/63
f 118/117/64 116/115/63 115/116/63
f 115/116/63 117/118/64 118/117/64
f 117/118/64 119/119/65 120/120/65
f 120/120/65 118/117/64 117/118/64
